Coordinates
version=1
nRows=14
nColumns=24
inDegrees=yes

Units are S.I. units (second, meters, Newtons, ...)
Angles are in degrees.

endheader
time	pelvis_tilt	pelvis_list	pelvis_rotation	pelvis_tx	pelvis_ty	pelvis_tz	hip_flexion_r	hip_adduction_r	hip_rotation_r	knee_angle_r	ankle_angle_r	subtalar_angle_r	mtp_angle_r	hip_flexion_l	hip_adduction_l	hip_rotation_l	knee_angle_l	ankle_angle_l	subtalar_angle_l	mtp_angle_l	lumbar_extension	lumbar_bending	lumbar_rotation
      0.72900000	      2.97610443	      4.10036130	     -0.18630340	     -0.46741253	      1.02192154	      0.26781403	      7.27809121	      0.17118513	      2.87963754	    -16.15043780	      8.24182458	    -12.75593871	     -1.05276923	     14.84444977	      2.34480659	     -8.21077169	    -68.13986228	     -0.09411224	    -18.40748916	     -1.21136553	     -6.04562168	     -4.48640343	      4.95601138
      0.73316667	      2.96586031	      4.24539549	     -0.32973728	     -0.46247883	      1.02278393	      0.26804227	      6.82228394	      0.00930483	      2.97232297	    -15.81171961	      8.35537347	    -12.63824128	     -1.05274693	     15.35447444	      2.49699913	     -8.30743207	    -67.78483805	      0.06111661	    -18.55083709	     -1.32466714	     -6.05477025	     -4.64020315	      5.25792939
      0.73733333	      2.93504229	      4.38492960	     -0.48789262	     -0.45752021	      1.02356696	      0.26825842	      6.39611733	     -0.15149905	      3.04881594	    -15.48121694	      8.43211338	    -12.52534454	     -1.05152156	     15.86946359	      2.64073575	     -8.41237299	    -67.37388917	      0.26451661	    -18.60108757	     -1.38927290	     -6.01970275	     -4.78166951	      5.45126607
      0.74150000	      2.90772801	      4.53373606	     -0.65049315	     -0.45259283	      1.02430730	      0.26847185	      5.97402203	     -0.32413053	      3.13762858	    -15.16367100	      8.55871088	    -12.37796323	     -1.04835575	     16.37046650	      2.79572811	     -8.51129452	    -66.90156209	      0.42647417	    -18.58981534	     -1.48447109	     -6.00931050	     -4.93732764	      5.78901656
      0.74566667	      2.90434044	      4.66061869	     -0.81811328	     -0.44763043	      1.02505815	      0.26866728	      5.51493277	     -0.48038940	      3.19836479	    -14.82144600	      8.68193422	    -12.22643180	     -1.04329123	     16.82697651	      2.92296214	     -8.60825495	    -66.37638782	      0.60286281	    -18.51595914	     -1.59853859	     -6.01706786	     -5.06792165	      6.12594086
      0.74983333	      2.85435200	      4.80322407	     -0.98317215	     -0.44266414	      1.02569184	      0.26883611	      5.11561768	     -0.65567641	      3.26730607	    -14.49618430	      8.75170323	    -12.08244808	     -1.03892870	     17.31961994	      3.07104022	     -8.69855565	    -65.79029220	      0.77931859	    -18.38988867	     -1.65751580	     -5.96370026	     -5.20829222	      6.31405011
      0.75400000	      2.82664466	      4.91200059	     -1.15278018	     -0.43770520	      1.02629831	      0.26902179	      4.68583475	     -0.79573931	      3.32673302	    -14.15448297	      8.87659036	    -11.91089321	     -1.03049629	     17.77896964	      3.17063039	     -8.78925502	    -65.17363905	      0.97847316	    -18.17863859	     -1.74426551	     -5.94689622	     -5.32646161	      6.66605335
      0.75816667	      2.80007027	      5.03351789	     -1.32890343	     -0.43273531	      1.02686947	      0.26918462	      4.25891391	     -0.95448188	      3.38461905	    -13.81838175	      8.97320241	    -11.74747888	     -1.02193668	     18.21650927	      3.28755460	     -8.87881131	    -64.49002771	      1.16187624	    -17.93329671	     -1.80875655	     -5.92246028	     -5.45177320	      6.93127715
      0.76233333	      2.75827700	      5.14752194	     -1.50676717	     -0.42776598	      1.02735601	      0.26933826	      3.85361310	     -1.10734969	      3.43789444	    -13.49020482	      9.07250575	    -11.57252509	     -1.01150402	     18.65739767	      3.39381810	     -8.96369636	    -63.76275291	      1.35063689	    -17.63456163	     -1.85981351	     -5.88115223	     -5.56605995	      7.20752779
      0.76650000	      2.72350807	      5.26728975	     -1.68815389	     -0.42279460	      1.02782828	      0.26947222	      3.44318058	     -1.27107807	      3.48301763	    -13.16127247	      9.12836254	    -11.40444308	     -1.00354828	     19.07021036	      3.51072456	     -9.04123165	    -62.97015067	      1.51047544	    -17.32004776	     -1.88317719	     -5.84596627	     -5.68427507	      7.41238113
      0.77066667	      2.70976425	      5.35183089	     -1.86673213	     -0.41781859	      1.02824837	      0.26961414	      3.00106927	     -1.39737021	      3.52924654	    -12.81972503	      9.26398538	    -11.20660162	     -0.98913748	     19.45032034	      3.57753517	     -9.11791277	    -62.15847114	      1.72579984	    -16.92295526	     -1.91066016	     -5.84252922	     -5.76622420	      7.75999715
      0.77483333	      2.67497647	      5.44074226	     -2.05006735	     -0.41284156	      1.02858815	      0.26974229	      2.59042830	     -1.53047771	      3.57368342	    -12.49013687	      9.36084792	    -11.02872529	     -0.97470798	     19.83507176	      3.65001268	     -9.19229262	    -61.29211293	      1.90849646	    -16.51742560	     -1.92530849	     -5.80695776	     -5.85073405	      8.03848962
      0.77900000	      2.64860477	      5.53666435	     -2.23540854	     -0.40785852	      1.02890988	      0.26985416	      2.17267350	     -1.67588118	      3.60802595	    -12.16156994	      9.42397813	    -10.85810215	     -0.96367418	     20.18862369	      3.73402722	     -9.25922030	    -60.36330777	      2.06334457	    -16.09935643	     -1.92604053	     -5.78050666	     -5.94349941	      8.25905260
      0.78316667	      2.64112753	      5.59459603	     -2.41192742	     -0.40287965	      1.02918267	      0.26996401	      1.72401298	     -1.78018005	      3.64682507	    -11.81663661	      9.54863507	    -10.66872983	     -0.94664731	     20.51225867	      3.76927903	     -9.31979227	    -59.41858977	      2.26055852	    -15.63235946	     -1.91765670	     -5.78229389	     -5.99318061	      8.58122106
